<svg id="SvgjsSvg1028" width="288" height="288" xmlns="http://www.w3.org/2000/svg" version="1.1" xmlns:xlink="http://www.w3.org/1999/xlink" xmlns:svgjs="http://svgjs.com/svgjs"><defs id="SvgjsDefs1029"></defs><g id="SvgjsG1030"><svg xmlns="http://www.w3.org/2000/svg" enable-background="new 0 0 100 100" viewBox="0 0 100 100" width="288" height="288"><path d="M91.36,78.98L55.22,15.11c-1.08-1.91-3.03-3.05-5.22-3.05l0,0c-2.19,0-4.14,1.14-5.22,3.05L8.64,78.98		c-1.06,1.88-1.05,4.11,0.04,5.98c1.09,1.86,3.02,2.98,5.18,2.98h72.28c2.16,0,4.1-1.11,5.18-2.98
		C92.41,83.1,92.43,80.86,91.36,78.98z M87.87,82.95c-0.17,0.3-0.69,0.99-1.73,0.99H13.86c-1.04,0-1.55-0.69-1.73-0.99
		c-0.17-0.3-0.52-1.09-0.01-1.99l36.14-63.88c0.52-0.92,1.39-1.02,1.74-1.02c0.35,0,1.22,0.1,1.74,1.02l36.14,63.88
		C88.39,81.86,88.04,82.65,87.87,82.95z" fill="#676767" class="color000 svgShape"></path><path d="M50 63.94c-3.86 0-7 3.14-7 7s3.14 7 7 7 7-3.14 7-7S53.86 63.94 50 63.94zM50 73.94c-1.65 0-3-1.35-3-3s1.35-3 3-3 3 1.35 3 3S51.65 73.94 50 73.94zM50 31.94c-3.86 0-7 3.14-7 7v14c0 3.86 3.14 7 7 7s7-3.14 7-7v-14C57 35.08 53.86 31.94 50 31.94zM53 52.94c0 1.65-1.35 3-3 3s-3-1.35-3-3v-14c0-1.65 1.35-3 3-3s3 1.35 3 3V52.94z" fill="#676767" class="color000 svgShape"></path></svg></g></svg>